<svg
   width="24px"
   height="24px"
   viewBox="0 0 24 24"
   fill="#fff"
   stroke="#fff"
   stroke-width="2"
   stroke-linecap="round"
   stroke-linejoin="round"
   xmlns="http://www.w3.org/2000/svg">
  <path
     d="M 8.0108289,14.666667 H 21.899706"
     id="path4"
     style="stroke-width:1;stroke-miterlimit:4;stroke-dasharray:none" />
  <path
     d="M 8.0108289,20 H 21.899706"
     id="path6"
     style="stroke-width:1;stroke-miterlimit:4;stroke-dasharray:none" />
  <circle
     cy="14.666667"
     cx="3.815644"
     r="1.71535"
     id="circle8"
     style="stroke-width:0.508049" />
  <circle
     cy="9.333333"
     cx="3.815644"
     r="1.71535"
     id="circle8-3"
     style="stroke-width:0.508049" />
  <circle
     cy="3.9999995"
     cx="3.815644"
     r="1.71535"
     id="circle8-3-9"
     style="stroke-width:0.508049" />
  <circle
     cy="20"
     cx="3.815644"
     r="1.71535"
     id="circle10"
     style="stroke-width:0.508049" />
  <path
     d="M 18.740503,4.8784631 17.398078,3.5347213 c -0.917695,-0.9185782 -1.37652,-1.3778696 -1.86935,-1.2691471 -0.492785,0.108727 -0.716244,0.718539 -1.163115,1.9381676 l -0.302458,0.8254775 c -0.119133,0.325144 -0.178699,0.4877137 -0.285873,0.6134661 -0.04809,0.056428 -0.102799,0.1068388 -0.162954,0.1501449 -0.134062,0.096533 -0.300842,0.1424924 -0.634404,0.2344567 -0.751825,0.2072478 -1.127737,0.3108943 -1.269392,0.5568567 -0.06124,0.1063181 -0.09311,0.2270353 -0.09233,0.3497901 0.0018,0.283862 0.277501,0.5598453 0.828915,1.1118118 l 0.64053,0.6413044 -2.0267,2.028601 c -0.134903,0.135026 -0.134903,0.354002 0,0.489027 0.134904,0.135026 0.35363,0.135026 0.488534,0 l 2.026767,-2.0286916 0.663809,0.6644427 c 0.554905,0.5554529 0.832382,0.8332019 1.117965,0.8336099 0.120355,1.81e-4 0.238627,-0.03111 0.343179,-0.09074 0.248091,-0.141591 0.352281,-0.52027 0.560661,-1.2776279 0.09165,-0.3329459 0.137425,-0.4994414 0.233601,-0.633471 0.04211,-0.058638 0.09092,-0.1121592 0.14553,-0.1594318 0.124657,-0.1079482 0.286172,-0.1686238 0.609201,-0.2899749 l 0.834968,-0.313747 C 19.291337,7.4558795 19.894425,7.229297 20.000743,6.737825 20.107016,6.2463076 19.651496,5.790358 18.740503,4.8784631 Z"
     fill="#ffffff"
     id="path1488"
     style="stroke-width:0.905605;fill:#ffffff;fill-opacity:1;opacity:0.4" />
</svg>
