<svg width="24px" height="24px" viewBox="0 0 24 24" fill="none" xmlns="http://www.w3.org/2000/svg">
<path d="M14.4697 10.4697C14.7626 10.1768 15.2374 10.1768 15.5303 10.4697C15.8232 10.7626 15.8232 11.2374 15.5303 11.5303L12.5303 14.5303C12.2374 14.8232 11.7626 14.8232 11.4697 14.5303L8.46967 11.5303C8.17678 11.2374 8.17678 10.7626 8.46967 10.4697C8.76256 10.1768 9.23744 10.1768 9.53033 10.4697L11.25 12.1893V4C11.25 3.58579 11.5858 3.25 12 3.25C12.4142 3.25 12.75 3.58579 12.75 4V12.1893L14.4697 10.4697Z" fill="#1C274C"/>
<path d="M20.75 12C20.75 11.5858 20.4142 11.25 20 11.25C19.5858 11.25 19.25 11.5858 19.25 12C19.25 16.0041 16.0041 19.25 12 19.25C7.99593 19.25 4.75 16.0041 4.75 12C4.75 11.5858 4.41421 11.25 4 11.25C3.58579 11.25 3.25 11.5858 3.25 12C3.25 16.8325 7.16751 20.75 12 20.75C16.8325 20.75 20.75 16.8325 20.75 12Z" fill="#1C274C"/>
</svg>
