<svg fill="#ffffff" version="1.1" id="Layer_1" xmlns="http://www.w3.org/2000/svg" xmlns:xlink="http://www.w3.org/1999/xlink" 
	 width="24px" height="24px" viewBox="0 0 512 512" enable-background="new 0 0 512 512" xml:space="preserve">
<path d="M256,0C114.609,0,0,114.609,0,256s114.609,256,256,256s256-114.609,256-256S397.391,0,256,0z M256,472
	c-119.297,0-216-96.703-216-216S136.703,40,256,40s216,96.703,216,216S375.297,472,256,472z"/>
<g>
	<path d="M177.914,311.906l-12.969,9.312c6.844,9.516,15.094,17.922,24.547,24.906l9.516-12.828
		C190.883,327.281,183.789,320.094,177.914,311.906z"/>
	<path d="M144.008,255.406V256c0,11.578,1.766,23,5.25,33.953l15.188-4.844c-2.969-9.375-4.469-19.172-4.469-29.109L144.008,255.406
		z"/>
	<path d="M165.711,189.75c-6.953,9.469-12.375,19.938-16.078,31.078l15.172,5.016c3.141-9.562,7.797-18.531,13.766-26.625
		L165.711,189.75z"/>
	<path d="M220.539,362.25c11.078,3.719,22.688,5.625,34.469,5.75l0.156-15.969c-10.125-0.094-20.062-1.734-29.594-4.922
		L220.539,362.25z"/>
	<path d="M221.758,149.344c-11.156,3.594-21.672,8.922-31.25,15.797l9.375,12.938c8.156-5.891,17.172-10.453,26.75-13.516
		L221.758,149.344z"/>
	<path d="M290.883,149.531c-11.109-3.625-22.719-5.484-34.562-5.531l-0.031,15.969c10.125,0.047,20.109,1.625,29.609,4.734
		L290.883,149.531z"/>
	<path d="M333.117,313.25l12.828,9.547c7.031-9.469,12.5-19.891,16.234-31.016l-15.125-5.062
		C343.836,296.203,339.164,305.125,333.117,313.25z"/>
	<path d="M362.555,221.469l-15.188,4.906c3.078,9.562,4.672,19.516,4.672,29.625l11.203,0.844l4.75-0.531
		C367.992,244.219,366.164,232.609,362.555,221.469z"/>
	<path d="M284.82,347.625l4.797,15.234c11.188-3.516,21.734-8.766,31.328-15.594l-9.266-13.016
		C303.461,340.109,294.414,344.609,284.82,347.625z"/>
	<path d="M346.68,190.25c-6.875-9.469-15.188-17.812-24.719-24.719l-9.406,12.859c8.156,5.969,15.297,13.125,21.203,21.266
		L346.68,190.25z"/>
</g>
</svg>
