<?xml version="1.0" standalone="no"?>
<!DOCTYPE svg PUBLIC "-//W3C//DTD SVG 20010904//EN"
 "http://www.w3.org/TR/2001/REC-SVG-20010904/DTD/svg10.dtd">
<svg version="1.0" xmlns="http://www.w3.org/2000/svg"
 width="1024.000000pt" height="1024.000000pt" viewBox="0 0 1024.000000 1024.000000"
 preserveAspectRatio="xMidYMid meet">

<g transform="translate(0.000000,1024.000000) scale(0.100000,-0.100000)"
fill="#fff" stroke="none">
<path d="M4825 8929 c-55 -5 -181 -23 -280 -39 -408 -69 -796 -194 -1155 -374
-386 -193 -676 -404 -999 -725 -481 -477 -832 -1085 -995 -1721 -209 -817
-149 -1712 164 -2450 150 -354 340 -652 631 -990 615 -716 1499 -1183 2489
-1317 169 -23 646 -25 810 -5 528 67 900 171 1308 367 331 159 688 402 946
645 500 469 807 936 1021 1555 62 178 132 498 167 755 33 243 32 683 0 925
-52 375 -124 656 -254 980 -336 836 -977 1534 -1808 1968 -412 215 -823 345
-1290 407 -179 24 -592 35 -755 19z m720 -529 c178 -25 243 -39 434 -92 353
-98 712 -265 1021 -477 691 -473 1169 -1157 1356 -1941 41 -172 73 -357 84
-494 13 -165 13 -465 0 -597 -66 -647 -306 -1243 -702 -1741 -317 -399 -835
-790 -1300 -982 -346 -143 -772 -243 -1113 -261 -60 -3 -127 -8 -148 -10 -116
-13 -508 30 -777 86 -531 111 -1126 411 -1534 775 -595 530 -978 1268 -1067
2054 -8 65 -13 222 -13 360 0 345 25 559 100 846 67 260 145 462 274 712 327
631 925 1194 1585 1490 307 138 719 252 1020 281 61 6 126 13 145 15 96 11
492 -4 635 -24z"/>
<path d="M4869 7940 c-143 -25 -243 -121 -256 -243 -11 -105 45 -204 142 -252
35 -18 63 -20 230 -21 172 -1 196 -4 250 -24 86 -33 168 -117 191 -195 22 -77
15 -164 -19 -230 -45 -88 -104 -131 -265 -189 -64 -24 -225 -83 -357 -131
-399 -146 -593 -222 -654 -259 -32 -20 -91 -71 -132 -113 -129 -135 -189 -284
-190 -468 0 -116 11 -183 45 -266 57 -141 156 -260 283 -343 77 -50 252 -122
553 -229 102 -36 275 -98 385 -137 110 -40 270 -96 355 -125 200 -69 356 -130
398 -155 66 -40 85 -147 36 -201 -29 -32 -67 -49 -349 -153 -408 -152 -654
-247 -735 -284 -188 -85 -338 -241 -419 -437 -50 -119 -64 -201 -65 -375 -1
-136 2 -164 22 -230 75 -239 226 -426 424 -525 123 -61 161 -67 431 -63 231 3
232 3 289 31 91 45 146 126 155 228 5 50 2 67 -22 114 -27 55 -77 102 -135
128 -14 6 -117 14 -230 17 -243 7 -278 17 -359 105 -117 129 -106 322 26 446
62 59 101 76 448 204 610 224 672 248 740 288 108 63 202 163 258 277 64 130
85 236 70 363 -13 105 -49 218 -96 296 -74 123 -216 246 -362 311 -60 28 -507
193 -990 365 -529 189 -581 212 -618 273 -24 42 -22 102 6 143 40 60 57 68
738 309 325 116 401 147 489 206 244 160 387 487 350 801 -25 209 -103 375
-245 519 -102 103 -194 163 -312 202 -71 23 -95 26 -268 28 -104 1 -211 -1
-236 -6z"/>
<path d="M6390 6386 c-65 -18 -145 -61 -190 -102 -52 -47 -110 -136 -132 -204
-25 -73 -25 -212 -2 -283 69 -210 301 -354 512 -317 185 32 328 164 377 351
26 98 15 207 -32 307 -32 68 -127 170 -191 205 -98 54 -240 71 -342 43z"/>
<path d="M3601 4794 c-280 -75 -420 -385 -295 -651 35 -73 121 -163 192 -201
271 -144 556 -24 659 277 38 112 25 244 -34 353 -54 100 -190 201 -304 227
-61 15 -154 12 -218 -5z"/>
</g>
</svg>
